<svg id="Livello_1" data-name="Livello 1" xmlns="http://www.w3.org/2000/svg" xmlns:xlink="http://www.w3.org/1999/xlink" viewBox="0 0 222.18 253.34">
  <defs>
    <symbol id="Omino_IGEA" data-name="Omino IGEA" viewBox="0 0 86.77 89.03">
      <circle class="cls-1" cx="37.8" cy="17.6" r="17.6" transform="rotate(-1.23 37.54491793 17.63965387)"/>
      <path class="cls-1" d="M1.25 44.31a57.45 57.45 0 018.83-10.53A35.29 35.29 0 0118 28.34c5.24 7.17 9.75 10.43 19.61 11.45 5.06.47 15.37-1.74 20.48-13.58 0 0 4.89 2.71 5.27 2.94A59.38 59.38 0 0170 33.64a45 45 0 016.76 6.56 40.65 40.65 0 015.73 9.15 44.59 44.59 0 012.38 6.84 58.94 58.94 0 011.59 7 38.16 38.16 0 01.27 6.81 57.78 57.78 0 01-1.39 10.56c-.63 2.79-1.13 6.57-4 8.06a3.31 3.31 0 01-3.34-.07C76.24 87.46 75.4 85 75.14 83c-.13-1-.09-1.92-.14-2.88s-.12-2.09-.19-3.14a58.68 58.68 0 00-.75-6.31c-.68-3.75-2-7.61-5.81-9.18a11.62 11.62 0 00-3.35-.69c-1.63-.15-3.27-.18-4.91-.17-10.74 0-33.69.73-33.69.73S17.41 49.91 3.76 48.3a12.13 12.13 0 01-3.12-.41c-1.21-.47-.41-2.08 0-2.75z"/>
    </symbol>
    <style>
      .cls-1{fill:#e2001a}.cls-4{fill:#c84f94}.cls-7{fill:#009ee0}.cls-8{fill:#ffed00}
    </style>
  </defs>
  <use width="86.77" height="89.03" transform="translate(72.52)" xlink:href="#Omino_IGEA"/>
  <path d="M229.71 90.62a17.44 17.44 0 117.17-23.71 17.53 17.53 0 01-7.17 23.71z" transform="translate(-16.79 -1.74)" fill="#ee7f01"/>
  <path d="M181.1 55.26a57.32 57.32 0 0113.36 3 35 35 0 018.43 4.52c-4 7.9-4.86 13.36-1.3 22.52 1.88 4.7 8.51 12.7 21.36 11.83 0 0-.2 5.55-.23 6a58.83 58.83 0 01-1 7.89 44.79 44.79 0 01-2.77 9 40.69 40.69 0 01-5.54 9.23 44.84 44.84 0 01-5 5.23 59.36 59.36 0 01-5.54 4.62 38.48 38.48 0 01-5.88 3.31 58.24 58.24 0 01-10 3.6c-2.77.72-6.36 2-9 .19a3.25 3.25 0 01-1.46-3c.15-2.09 1.95-3.95 3.59-5.09.79-.55 1.67-1 2.5-1.44s1.81-1.06 2.71-1.6a59.15 59.15 0 005.28-3.54c3-2.31 5.86-5.23 5.53-9.31a11.43 11.43 0 00-.91-3.27c-.6-1.51-1.32-3-2.07-4.41-4.9-9.45-15.91-29.37-15.91-29.37s6.18-13.08 1.43-25.85a11.93 11.93 0 01-1.05-2.94c-.13-1.28 1.67-1.31 2.46-1.22z" transform="translate(-16.79 -1.74)" fill="#ee7f02"/>
  <path class="cls-4" d="M43.68 58a17.65 17.65 0 11-24.36 5.9A17.73 17.73 0 0143.68 58z" transform="translate(-16.79 -1.74)"/>
  <path class="cls-4" d="M37.66 118.54a58 58 0 01-4.23-13.18 35.38 35.38 0 01-.36-9.67c8.94-.54 14.15-2.59 20.32-10.38 3.12-4 6.78-13.95-.57-24.7 0 0 4.94-2.66 5.34-2.86a59.51 59.51 0 017.39-3.16 45.3 45.3 0 019.24-2.16 41.14 41.14 0 0110.89.12 45.33 45.33 0 017.12 1.7 60 60 0 016.86 2.47 38.9 38.9 0 015.89 3.44 58.87 58.87 0 018.26 6.84c2 2 5 4.52 4.74 7.73a3.29 3.29 0 01-1.84 2.79c-1.9.94-4.44.32-6.27-.53-.88-.41-1.69-1-2.53-1.45s-1.85-1-2.78-1.54a59.8 59.8 0 00-5.79-2.79c-3.56-1.46-7.56-2.44-11-.07A11.57 11.57 0 0086 73.65c-1 1.3-1.91 2.67-2.79 4.06-5.74 9.11-17.5 28.9-17.5 28.9s-14.57 1.29-23.3 12a12.07 12.07 0 01-2 2.42c-1.05.77-2-.78-2.32-1.53z" transform="translate(-16.79 -1.74)"/>
  <ellipse cx="34.53" cy="183.26" rx="17.6" ry="17.65" transform="rotate(-29.74 22.8641633 214.00733987)" fill="#009036"/>
  <path d="M75.49 202.72A57.48 57.48 0 0162 200a35.39 35.39 0 01-8.58-4.4c3.79-8 4.5-13.57.67-22.74-2-4.68-8.89-12.71-21.74-11.56 0 0 0-5.6.06-6a59.54 59.54 0 01.78-8 45.07 45.07 0 012.53-9.09 40.62 40.62 0 015.3-9.41 44.49 44.49 0 014.87-5.36 58.78 58.78 0 015.42-4.76 38 38 0 015.8-3.45 57.61 57.61 0 019.95-3.82c2.75-.77 6.31-2.15 9-.35a3.33 3.33 0 011.55 3c-.09 2.11-1.84 4-3.46 5.2-.78.57-1.65 1-2.47 1.5s-1.78 1.1-2.67 1.67a58.5 58.5 0 00-5.19 3.57c-3 2.39-5.73 5.39-5.28 9.5a11.68 11.68 0 001 3.28c.65 1.51 1.41 3 2.2 4.41 5.18 9.44 16.77 29.33 16.77 29.33s-5.83 13.31-.71 26.11a12.2 12.2 0 011.14 2.94c.17 1.29-1.63 1.35-2.44 1.27z" transform="translate(-16.79 -1.74)" fill="#019035"/>
  <ellipse class="cls-7" cx="128.72" cy="237.48" rx="17.65" ry="17.6" transform="rotate(-.43 -110.55148383 2473.9865851)"/>
  <path class="cls-7" d="M165.74 211.29a57.48 57.48 0 01-9 10.4 35.39 35.39 0 01-8 5.33c-5.16-7.24-9.63-10.56-19.5-11.72-5.07-.54-15.43 1.53-20.72 13.29 0 0-4.86-2.78-5.24-3a59.54 59.54 0 01-6.62-4.59 45.07 45.07 0 01-6.66-6.65 40.62 40.62 0 01-5.62-9.23 44.49 44.49 0 01-2.29-6.87 58.78 58.78 0 01-1.5-7.06 38 38 0 01-.17-6.75 57.61 57.61 0 011.54-10.54c.67-2.78 1.22-6.56 4.09-8a3.33 3.33 0 013.34.1c1.79 1.12 2.6 3.57 2.84 5.56.11 1 .06 1.93.1 2.88s.09 2.09.15 3.14a58.5 58.5 0 00.66 6.32c.63 3.76 1.89 7.63 5.69 9.25a11.68 11.68 0 003.35.73c1.63.18 3.28.22 4.92.24 10.77.11 33.79-.26 33.79-.26s8.75 11.6 22.41 13.4a12.2 12.2 0 013.12.45c1.21.49.38 2.09-.08 2.75z" transform="translate(-16.79 -1.74)"/>
  <ellipse class="cls-8" cx="221.23" cy="184.15" rx="17.65" ry="17.6" transform="rotate(-58.91 211.29351296 198.1473916)"/>
  <path class="cls-8" d="M218.25 138.91a57.48 57.48 0 014.17 13.09 35.39 35.39 0 01.34 9.64c-8.87.61-14 2.69-20.18 10.49-3.11 4-6.76 14 .5 24.62 0 0-4.91 2.69-5.3 2.89a59.54 59.54 0 01-7.34 3.21 45.07 45.07 0 01-9.17 2.23 40.62 40.62 0 01-10.8 0 44.49 44.49 0 01-7.06-1.64 58.78 58.78 0 01-6.8-2.41 38 38 0 01-5.84-3.39 57.61 57.61 0 01-8.18-6.82c-2-2-5-4.47-4.68-7.67a3.33 3.33 0 011.83-2.8c1.89-.95 4.41-.35 6.22.49.87.4 1.67 1 2.51 1.42s1.83 1 2.75 1.52a58.5 58.5 0 005.74 2.74c3.53 1.42 7.5 2.37 10.87 0a11.68 11.68 0 002.37-2.47c1-1.3 1.9-2.68 2.78-4.07 5.7-9.16 17.42-28.98 17.42-28.98s14.46-1.39 23.14-12.1a12.2 12.2 0 012-2.43c1-.77 2 .77 2.3 1.51z" transform="translate(-16.79 -1.74)"/>
</svg>
