<svg xmlns="http://www.w3.org/2000/svg" viewBox="0 0 790.9 430.9">
  <style>
    .st0{fill:#e2071c}.st3{fill:#c85095}.st4{fill:#069139}.st5{fill:#169dd9}.st6{fill:#fdeb1b}
  </style>
  <g id="brand-mark">
    <g id="XMLID_426_">
      <g id="XMLID_437_">
        <circle id="XMLID_122_" transform="matrix(.9998 -.02144 .02144 .9998 -.6508 4.0333)" class="st0" cx="187.8" cy="32.4" r="29.5"/>
        <path id="XMLID_121_" class="st0" d="M126.5 77.2c4.2-6.5 9.2-12.4 14.8-17.7 4-3.6 8.5-6.7 13.3-9.1 8.8 12 16.3 17.5 32.9 19.2 8.5.8 25.8-2.9 34.3-22.8 0 0 8.2 4.5 8.8 4.9 3.9 2.3 7.6 4.8 11.1 7.5 4.2 3.3 7.9 7 11.3 11 3.9 4.7 7.1 9.8 9.6 15.4 1.6 3.7 3 7.5 4 11.5 1.1 3.9 2 7.8 2.7 11.7.5 3.8.6 7.6.5 11.4-.2 6-1 11.9-2.3 17.7-1.1 4.7-1.9 11-6.7 13.5-1.8 1-3.9.9-5.6-.1-2.9-1.8-4.4-6-4.8-9.3-.2-1.7-.2-3.2-.2-4.8-.1-1.6-.2-3.5-.3-5.3-.2-3.5-.6-7.1-1.3-10.6-1.1-6.3-3.4-12.8-9.7-15.4-1.8-.7-3.7-1.1-5.6-1.2-2.7-.3-5.5-.3-8.2-.3-18 0-56.5 1.2-56.5 1.2s-14.9-19.2-37.8-21.9c-1.8 0-3.5-.2-5.2-.7-2-.8-.7-3.5 0-4.6l.9-1.2z"/>
      </g>
      <g id="XMLID_436_">
        <path id="XMLID_119_" d="M359.8 152c-14.3 7.6-32 2.1-39.5-12.2s-2.1-32 12.1-39.6c14.2-7.5 31.8-2.2 39.4 11.9 7.6 14.4 2.2 32.2-12 39.9z" fill="#ee8008"/>
      </g>
      <g id="XMLID_435_">
        <path id="XMLID_118_" d="M278.3 92.7c7.6.8 15.2 2.5 22.4 5 5 1.9 9.8 4.4 14.1 7.6-6.7 13.3-8.1 22.4-2.2 37.8 3.2 7.9 14.3 21.3 35.8 19.9 0 0-.3 9.3-.4 10.1-.3 4.4-.8 8.9-1.7 13.2-1 5.2-2.6 10.2-4.6 15.1-2.4 5.6-5.5 10.8-9.3 15.5-2.6 3.1-5.4 6.1-8.4 8.8-2.9 2.8-6 5.4-9.3 7.8-3.1 2.1-6.4 4-9.9 5.6-5.4 2.5-11 4.5-16.8 6-4.6 1.2-10.7 3.4-15.1.3-1.7-1.1-2.6-3-2.4-5 .3-3.5 3.3-6.6 6-8.5 1.3-.9 2.8-1.7 4.2-2.4s3-1.8 4.5-2.7c3.1-1.8 6-3.8 8.9-5.9 5-3.9 9.8-8.8 9.3-15.6-.2-1.9-.7-3.7-1.5-5.5-1-2.5-2.2-5-3.5-7.4-8.2-15.9-26.7-49.3-26.7-49.3s10.4-22 2.4-43.4c-.8-1.6-1.4-3.2-1.8-4.9-.2-2.1 2.8-2.2 4.1-2l1.9-.1z" fill="#ee800a"/>
      </g>
      <g id="XMLID_434_">
        <path id="XMLID_117_" class="st3" d="M47.9 97.3c13.9 8.6 18.2 26.8 9.7 40.8-8.6 13.9-26.8 18.3-40.7 9.7-13.8-8.5-18.2-26.6-9.8-40.5 8.6-14.2 26.8-18.6 40.8-10z"/>
      </g>
      <g id="XMLID_433_">
        <path id="XMLID_116_" class="st3" d="M37.8 198.9c-3.2-7.1-5.6-14.5-7.1-22.1-.9-5.4-1.1-10.8-.6-16.2 15-.9 23.7-4.3 34.1-17.4 5.2-6.7 11.4-23.4-1-41.5 0 0 8.3-4.5 9-4.8 4-2 8.1-3.8 12.4-5.3 5-1.7 10.2-3 15.5-3.6 6.1-.7 12.2-.7 18.3.2 4 .6 8 1.6 11.9 2.9 3.9 1.1 7.8 2.5 11.5 4.1 3.5 1.6 6.8 3.6 9.9 5.8 5 3.4 9.6 7.2 13.8 11.5 3.4 3.4 8.4 7.6 7.9 13-.1 2-1.3 3.8-3.1 4.7-3.2 1.6-7.4.5-10.5-.9-1.5-.7-2.8-1.7-4.2-2.4s-3.1-1.7-4.7-2.6c-3.1-1.7-6.4-3.3-9.7-4.7-6-2.5-12.7-4.1-18.4-.1-1.5 1.2-2.8 2.6-3.9 4.2-1.7 2.2-3.2 4.5-4.7 6.8-9.6 15.3-29.3 48.5-29.3 48.5s-24.5 2-39.1 20c-.9 1.5-2.1 2.9-3.4 4.1-1.8 1.3-3.4-1.3-3.9-2.6l-.7-1.6z"/>
      </g>
      <g id="XMLID_432_">
        <path id="XMLID_115_" class="st4" d="M17.9 281.8c14.1-8.1 32.2-3.1 40.3 11.1 8.1 14.2 3.2 32.3-10.9 40.4-14.1 8.1-32.2 3.1-40.3-11.1-8.1-14.3-3.2-32.3 10.9-40.4z"/>
      </g>
      <g id="XMLID_431_">
        <path id="XMLID_114_" class="st4" d="M101.3 340.1c-7.7-.6-15.3-2.1-22.6-4.6-5.1-1.8-9.9-4.3-14.4-7.4 6.4-13.4 7.5-22.8 1.1-38.2C62 282 50.5 268.6 29 270.5c0 0 0-9.4.1-10.1.1-4.5.6-9 1.3-13.4.9-5.2 2.3-10.3 4.2-15.3 2.2-5.6 5.2-10.9 8.9-15.8 2.5-3.2 5.2-6.2 8.2-9 2.9-2.8 5.9-5.5 9.1-8 3.1-2.2 6.3-4.2 9.7-5.8 5.3-2.6 10.9-4.8 16.7-6.4 4.6-1.3 10.6-3.6 15.1-.6 1.7 1.1 2.7 3 2.6 5-.2 3.5-3.1 6.7-5.8 8.7-1.3 1-2.8 1.7-4.1 2.5s-3 1.8-4.5 2.8c-3 1.8-5.9 3.8-8.7 6-5 4-9.6 9-8.9 15.9.3 1.9.9 3.8 1.7 5.5 1.1 2.5 2.4 5 3.7 7.4 8.7 15.8 28.1 49.2 28.1 49.2s-9.8 22.3-1.2 43.8c.8 1.6 1.5 3.2 1.9 4.9.3 2.2-2.7 2.3-4.1 2.1l-1.7.2z"/>
      </g>
      <g id="XMLID_430_">
        <ellipse id="XMLID_113_" transform="matrix(1 -.0075 .0075 1 -2.9816 1.4389)" class="st5" cx="190.5" cy="398.5" rx="29.6" ry="29.5"/>
      </g>
      <g id="XMLID_429_">
        <path id="XMLID_112_" class="st5" d="M252.5 354.5c-4.3 6.4-9.4 12.3-15.1 17.5-4 3.6-8.6 6.6-13.4 8.9-8.6-12.2-16.1-17.7-32.7-19.7-8.5-.9-25.9 2.6-34.7 22.3 0 0-8.1-4.7-8.8-5-3.9-2.3-7.6-4.9-11.1-7.7-4.1-3.3-7.8-7.1-11.2-11.2-3.8-4.7-7-9.9-9.4-15.5-1.6-3.7-2.9-7.6-3.8-11.5-1.1-3.9-1.9-7.9-2.5-11.8-.4-3.8-.5-7.6-.3-11.3.3-6 1.2-11.9 2.6-17.7 1.1-4.7 2-11 6.9-13.4 1.8-1 3.9-.9 5.6.2 3 1.9 4.4 6 4.8 9.3.2 1.7.1 3.2.2 4.8.1 1.6.2 3.5.3 5.3.2 3.6.5 7.1 1.1 10.6 1.1 6.3 3.2 12.8 9.5 15.5 1.8.7 3.7 1.1 5.6 1.2 2.7.3 5.5.4 8.2.4 18.1.2 56.6-.4 56.6-.4s14.7 19.5 37.6 22.5c1.8 0 3.5.3 5.2.8 2 .8.6 3.5-.1 4.6l-1.1 1.3z"/>
      </g>
      <g id="XMLID_428_">
        <path id="XMLID_40_" class="st6" d="M320.3 293.7c8.4-14 26.6-18.5 40.5-10.1 14 8.4 18.4 26.6 10 40.6s-26.6 18.5-40.5 10.1c-14-8.4-18.5-26.6-10-40.6z"/>
      </g>
      <g id="XMLID_427_">
        <path id="XMLID_1_" class="st6" d="M340.6 233c3.2 7 5.5 14.4 7 22 .9 5.3 1.1 10.8.6 16.2-14.9 1-23.5 4.5-33.8 17.6-5.2 6.7-11.3 23.5.8 41.3 0 0-8.2 4.5-8.9 4.9-4 2.1-8.1 3.9-12.3 5.4-5 1.8-10.1 3-15.4 3.7-6 .8-12.1.8-18.1 0-4-.6-8-1.5-11.8-2.8-3.9-1.1-7.7-2.5-11.4-4-3.4-1.6-6.7-3.5-9.8-5.7-4.9-3.4-9.5-7.2-13.7-11.4-3.4-3.4-8.4-7.5-7.8-12.9.1-2 1.3-3.8 3.1-4.7 3.2-1.6 7.4-.6 10.4.8 1.5.7 2.8 1.7 4.2 2.4 1.4.7 3.1 1.7 4.6 2.6 3.1 1.7 6.3 3.2 9.6 4.6 5.9 2.4 12.6 4 18.2 0 1.5-1.2 2.9-2.6 4-4.1 1.7-2.2 3.2-4.5 4.7-6.8 9.6-15.4 29.2-48.6 29.2-48.6s24.2-2.3 38.8-20.3c.9-1.5 2.1-2.9 3.4-4.1 1.7-1.3 3.4 1.3 3.9 2.5l.5 1.4z"/>
      </g>
    </g>
  </g>
  <g id="brand-name">
    <g id="XMLID_438_">
      <path id="XMLID_31_" d="M128.8 196.1h8.4v37.2h-8.4v-37.2z"/>
      <path id="XMLID_33_" d="M170.4 214.6h7.3V229c-2 1.5-4.4 2.6-7.1 3.5-2.8.9-5.4 1.4-8 1.4-3.7 0-7.1-.8-10.1-2.5s-5.4-4-7.1-6.9c-1.7-2.9-2.6-6.2-2.6-9.8 0-3.6.9-6.8 2.7-9.8 1.8-2.9 4.2-5.2 7.3-6.9 3.1-1.7 6.5-2.5 10.3-2.5 2.8 0 5.5.5 8.1 1.5 2.6 1 4.9 2.3 6.8 4l-4.7 6c-1.4-1.3-3-2.3-4.8-3.1-1.8-.7-3.6-1.1-5.4-1.1-2.2 0-4.1.5-5.9 1.6s-3.2 2.5-4.2 4.3c-1 1.8-1.5 3.8-1.5 6s.5 4.2 1.6 6c1 1.8 2.5 3.3 4.2 4.3 1.8 1 3.8 1.6 5.9 1.6 1.1 0 2.3-.2 3.6-.6 1.3-.4 2.5-.9 3.7-1.5v-9.9z"/>
      <path id="XMLID_35_" d="M185 196.1h28.3v7h-19.9v8.1h17.9v7h-17.9v8.2h20.5v7H185v-37.3z"/>
      <path id="XMLID_37_" d="M247.9 233.3l-2.9-7.2h-17.2l-2.9 7.2h-8.7l16.1-37.2h8.7l15.9 37.2h-9zm-17.3-13.9h11.7l-5.8-14.5-5.9 14.5z"/>
    </g>
  </g>
  <g id="strapline">
    <g id="XMLID_589_">
      <path id="XMLID_43_" d="M426.5 255.9c1.7 1.5 2.6 3.6 2.6 6.3 0 2.8-.9 5-2.6 6.6-1.7 1.6-4.1 2.4-7.2 2.4h-5.4v7.3h-4.7v-24.8h10.2c3-.1 5.4.7 7.1 2.2zm-3.3 9.9c1-.8 1.4-1.9 1.4-3.5 0-1.5-.5-2.6-1.4-3.4-1-.8-2.3-1.1-4.1-1.1h-5.2v9.2h5.2c1.7 0 3.1-.4 4.1-1.2z"/>
      <path id="XMLID_76_" d="M453 255c2 1.1 3.6 2.6 4.8 4.6 1.2 1.9 1.7 4.1 1.7 6.5s-.6 4.5-1.7 6.5c-1.2 1.9-2.7 3.5-4.8 4.6-2 1.1-4.3 1.7-6.7 1.7-2.5 0-4.7-.6-6.7-1.7s-3.6-2.7-4.8-4.6c-1.2-2-1.7-4.1-1.7-6.5s.6-4.5 1.7-6.5c1.2-1.9 2.7-3.5 4.8-4.6 2-1.1 4.3-1.7 6.7-1.7 2.5 0 4.7.6 6.7 1.7zm-10.8 3.7c-1.3.7-2.3 1.8-3.1 3.1-.8 1.3-1.1 2.7-1.1 4.3 0 1.6.4 3 1.1 4.3.8 1.3 1.8 2.3 3.1 3.1 1.3.8 2.7 1.1 4.2 1.1s2.9-.4 4.1-1.1c1.3-.8 2.3-1.8 3-3.1.7-1.3 1.1-2.7 1.1-4.3 0-1.6-.4-3-1.1-4.3-.7-1.3-1.8-2.3-3-3.1-1.3-.7-2.7-1.1-4.1-1.1-1.5 0-2.9.3-4.2 1.1z"/>
      <path id="XMLID_79_" d="M465.7 253.6h4.7v20.5h10.7v4.3h-15.4v-24.8z"/>
      <path id="XMLID_81_" d="M486.9 253.6h4.7v24.8h-4.7v-24.8z"/>
      <path id="XMLID_83_" d="M511.4 258.2c-1.3-.4-2.5-.6-3.5-.6-1.1 0-2 .2-2.7.6-.7.4-1 1-1 1.8 0 .7.2 1.3.7 1.7.5.5 1 .8 1.7 1.1.7.3 1.6.6 2.9 1 1.7.5 3 1 4.1 1.5 1.1.5 2 1.2 2.7 2.2.8 1 1.1 2.2 1.1 3.8 0 1.5-.4 2.8-1.2 4-.8 1.1-1.9 2-3.4 2.6-1.4.6-3.1.9-4.9.9-1.9 0-3.8-.4-5.7-1.1-1.8-.7-3.4-1.7-4.8-2.9l2-4c1.3 1.2 2.7 2.1 4.2 2.7 1.6.7 3 1 4.4 1 1.3 0 2.4-.3 3.1-.8.8-.5 1.1-1.2 1.1-2.1 0-.7-.2-1.3-.7-1.8-.5-.5-1-.8-1.8-1.1-.7-.3-1.7-.6-2.9-1-1.7-.5-3-1-4.1-1.4-1.1-.5-2-1.2-2.7-2.1-.8-1-1.1-2.2-1.1-3.8 0-1.4.4-2.7 1.1-3.8.8-1.1 1.9-1.9 3.3-2.5 1.4-.6 3-.9 4.9-.9 1.6 0 3.2.2 4.8.7 1.6.5 3 1.1 4.2 1.9l-1.9 4.1c-1.3-.7-2.6-1.3-3.9-1.7z"/>
      <path id="XMLID_85_" d="M541.4 255.9c1.7 1.5 2.6 3.6 2.6 6.3 0 2.8-.9 5-2.6 6.6-1.7 1.6-4.1 2.4-7.2 2.4h-5.4v7.3H524v-24.8h10.2c3.1-.1 5.5.7 7.2 2.2zm-3.4 9.9c1-.8 1.4-1.9 1.4-3.5 0-1.5-.5-2.6-1.4-3.4-1-.8-2.3-1.1-4.1-1.1h-5.2v9.2h5.2c1.8 0 3.2-.4 4.1-1.2z"/>
      <path id="XMLID_88_" d="M549.9 253.6h18.2v4.1h-13.4v6.1h12v4.1h-12v6.2h13.8v4.1h-18.6v-24.6z"/>
      <path id="XMLID_90_" d="M590.2 258.4c-1.2-.6-2.4-.9-3.6-.9-1.5 0-2.9.4-4.2 1.1-1.3.7-2.3 1.7-3 3-.7 1.3-1.1 2.7-1.1 4.2s.4 3 1.1 4.2c.7 1.3 1.7 2.3 3 3.1 1.3.7 2.7 1.1 4.2 1.1 1.2 0 2.4-.3 3.6-.8 1.2-.5 2.2-1.2 3.2-2.2l2.8 3.1c-1.3 1.3-2.8 2.4-4.5 3.1-1.7.8-3.5 1.2-5.2 1.2-2.4 0-4.6-.6-6.5-1.7-2-1.1-3.5-2.7-4.7-4.6-1.1-2-1.7-4.1-1.7-6.5s.6-4.5 1.7-6.5c1.2-1.9 2.7-3.5 4.7-4.6 2-1.1 4.2-1.7 6.6-1.7 1.8 0 3.5.4 5.2 1.1s3.2 1.7 4.4 2.9l-2.8 3.5c-1-.7-2-1.5-3.2-2.1z"/>
      <path id="XMLID_92_" d="M602 253.6h4.7v24.8H602v-24.8z"/>
      <path id="XMLID_94_" d="M633.2 278.5l-2.2-5.2h-12.1l-2.2 5.2h-4.9l10.9-24.8h4.9l10.7 24.8h-5.1zm-12.6-9.4h8.7l-4.3-10.4-4.4 10.4z"/>
      <path id="XMLID_97_" d="M643.3 253.6h4.7v20.5h10.7v4.3h-15.4v-24.8z"/>
      <path id="XMLID_99_" d="M664.5 253.6h4.7v24.8h-4.7v-24.8z"/>
      <path id="XMLID_101_" d="M689 258.2c-1.3-.4-2.5-.6-3.5-.6-1.1 0-2 .2-2.7.6-.7.4-1 1-1 1.8 0 .7.2 1.3.7 1.7.5.5 1 .8 1.7 1.1.7.3 1.6.6 2.8 1 1.7.5 3.1 1 4.1 1.5 1.1.5 2 1.2 2.7 2.2.8 1 1.1 2.2 1.1 3.8 0 1.5-.4 2.8-1.2 4-.8 1.1-1.9 2-3.4 2.6-1.4.6-3.1.9-4.9.9-1.9 0-3.8-.4-5.7-1.1s-3.4-1.7-4.8-2.9l2-4c1.3 1.2 2.7 2.1 4.2 2.7 1.6.7 3 1 4.4 1 1.3 0 2.4-.3 3.1-.8.8-.5 1.1-1.2 1.1-2.1 0-.7-.2-1.3-.7-1.8-.5-.5-1-.8-1.8-1.1-.7-.3-1.7-.6-2.9-1-1.7-.5-3-1-4.1-1.4-1.1-.5-2-1.2-2.7-2.1-.8-1-1.1-2.2-1.1-3.8 0-1.4.4-2.7 1.2-3.8.8-1.1 1.8-1.9 3.3-2.5 1.4-.6 3-.9 4.9-.9 1.6 0 3.2.2 4.8.7 1.6.5 3 1.1 4.2 1.9l-1.9 4.1c-1.2-.7-2.6-1.3-3.9-1.7z"/>
      <path id="XMLID_103_" d="M698.8 253.6H719v4.2h-7.7v20.6h-4.8v-20.6h-7.7v-4.2z"/>
      <path id="XMLID_105_" d="M724.4 253.6h4.7v24.8h-4.7v-24.8z"/>
      <path id="XMLID_107_" d="M752.1 258.4c-1.2-.6-2.4-.9-3.6-.9-1.5 0-2.9.4-4.2 1.1-1.3.7-2.3 1.7-3 3-.7 1.3-1.1 2.7-1.1 4.2s.4 3 1.1 4.2c.7 1.3 1.7 2.3 3 3.1 1.3.7 2.7 1.1 4.2 1.1 1.2 0 2.4-.3 3.6-.8 1.2-.5 2.2-1.2 3.2-2.2l2.8 3.1c-1.3 1.3-2.8 2.4-4.5 3.1-1.7.8-3.5 1.2-5.2 1.2-2.4 0-4.6-.6-6.5-1.7-2-1.1-3.5-2.7-4.7-4.6-1.1-2-1.7-4.1-1.7-6.5s.6-4.5 1.7-6.5c1.2-1.9 2.7-3.5 4.7-4.6 2-1.1 4.2-1.7 6.6-1.7 1.8 0 3.5.4 5.2 1.1s3.2 1.7 4.4 2.9l-2.8 3.5c-.9-.7-2-1.5-3.2-2.1z"/>
      <path id="XMLID_109_" d="M781.4 255c2 1.1 3.6 2.6 4.8 4.6 1.2 1.9 1.7 4.1 1.7 6.5s-.6 4.5-1.7 6.5c-1.2 1.9-2.7 3.5-4.8 4.6-2 1.1-4.3 1.7-6.7 1.7-2.5 0-4.7-.6-6.7-1.7s-3.6-2.7-4.8-4.6c-1.2-2-1.7-4.1-1.7-6.5s.6-4.5 1.7-6.5c1.2-1.9 2.7-3.5 4.8-4.6 2-1.1 4.3-1.7 6.7-1.7 2.5 0 4.7.6 6.7 1.7zm-10.8 3.7c-1.3.7-2.3 1.8-3.1 3.1-.8 1.3-1.1 2.7-1.1 4.3 0 1.6.4 3 1.1 4.3.8 1.3 1.8 2.3 3.1 3.1 1.3.8 2.7 1.1 4.2 1.1s2.9-.4 4.1-1.1c1.3-.8 2.3-1.8 3-3.1.7-1.3 1.1-2.7 1.1-4.3 0-1.6-.4-3-1.1-4.3-.7-1.3-1.8-2.3-3-3.1-1.3-.7-2.7-1.1-4.1-1.1-1.5 0-2.9.3-4.2 1.1z"/>
    </g>
    <g id="XMLID_662_">
      <path id="XMLID_2_" d="M430.8 196.8c2.6 1.4 4.6 3.3 6 5.7 1.5 2.4 2.2 5.1 2.2 8.2 0 3-.7 5.8-2.2 8.2-1.5 2.5-3.5 4.4-6 5.8-2.6 1.4-5.4 2.1-8.6 2.1-3.2 0-6-.7-8.6-2.1-2.6-1.4-4.6-3.3-6-5.8-1.5-2.5-2.2-5.2-2.2-8.3 0-3 .7-5.7 2.2-8.2 1.5-2.4 3.5-4.3 6-5.7 2.6-1.4 5.4-2.1 8.6-2.1 3.2.1 6.1.8 8.6 2.2zm-12.7 5.9c-1.3.8-2.4 1.9-3.1 3.3-.8 1.4-1.2 2.9-1.2 4.6 0 1.7.4 3.3 1.2 4.7.8 1.4 1.8 2.5 3.1 3.3 1.3.8 2.7 1.2 4.2 1.2s2.9-.4 4.2-1.2c1.3-.8 2.3-1.9 3-3.3.7-1.4 1.1-3 1.1-4.7 0-1.7-.4-3.2-1.1-4.6-.7-1.4-1.7-2.5-3-3.3-1.3-.8-2.7-1.2-4.2-1.2s-2.9.4-4.2 1.2z"/>
      <path id="XMLID_44_" d="M465 197.1c2.5 1.3 4.4 3.1 5.8 5.5 1.4 2.3 2.1 5 2.1 8.1 0 3-.7 5.7-2.1 8.1-1.4 2.4-3.4 4.2-5.9 5.5-2.6 1.3-5.5 1.9-8.8 1.9H443v-31.1h13.4c3.3.1 6.2.7 8.6 2zm-4.2 21.5c1.2-.7 2.2-1.8 2.8-3.1s1-2.9 1-4.7c0-1.8-.4-3.3-1.1-4.7-.7-1.4-1.7-2.4-3-3.2-1.3-.8-2.7-1.1-4.3-1.1h-5.1v17.9h5.5c1.6 0 3-.4 4.2-1.1z"/>
      <path id="XMLID_47_" d="M499.8 196.8c2.6 1.4 4.6 3.3 6 5.7 1.5 2.4 2.2 5.1 2.2 8.2 0 3-.7 5.8-2.2 8.2-1.5 2.5-3.5 4.4-6 5.8-2.6 1.4-5.4 2.1-8.6 2.1-3.2 0-6-.7-8.6-2.1-2.6-1.4-4.6-3.3-6-5.8-1.5-2.5-2.2-5.2-2.2-8.3 0-3 .7-5.7 2.2-8.2 1.5-2.4 3.5-4.3 6-5.7 2.6-1.4 5.4-2.1 8.6-2.1 3.2.1 6 .8 8.6 2.2zm-12.8 5.9c-1.3.8-2.4 1.9-3.1 3.3-.8 1.4-1.1 2.9-1.1 4.6 0 1.7.4 3.3 1.2 4.7.8 1.4 1.8 2.5 3.1 3.3 1.3.8 2.7 1.2 4.2 1.2s2.9-.4 4.2-1.2c1.3-.8 2.3-1.9 3-3.3.7-1.4 1.1-3 1.1-4.7 0-1.7-.4-3.2-1.1-4.6-.7-1.4-1.8-2.5-3-3.3-1.3-.8-2.7-1.2-4.2-1.2s-2.9.4-4.3 1.2z"/>
      <path id="XMLID_50_" d="M533.2 195.2h7.5v31.1h-7.1l-14.1-18.6v18.6H512v-31.1h7.1l14.1 18.7v-18.7z"/>
      <path id="XMLID_52_" d="M544.1 195.2h26.6v6.7h-9.3v24.4h-8.1v-24.4h-9.2v-6.7z"/>
      <path id="XMLID_54_" d="M595.8 196.8c2.6 1.4 4.6 3.3 6 5.7 1.5 2.4 2.2 5.1 2.2 8.2 0 3-.7 5.8-2.2 8.2-1.5 2.5-3.5 4.4-6 5.8-2.6 1.4-5.4 2.1-8.6 2.1-3.2 0-6-.7-8.6-2.1-2.6-1.4-4.6-3.3-6-5.8-1.5-2.5-2.2-5.2-2.2-8.3 0-3 .7-5.7 2.2-8.2 1.5-2.4 3.5-4.3 6-5.7 2.6-1.4 5.4-2.1 8.6-2.1 3.2.1 6 .8 8.6 2.2zm-12.8 5.9c-1.3.8-2.4 1.9-3.1 3.3-.8 1.4-1.1 2.9-1.1 4.6 0 1.7.4 3.3 1.2 4.7.8 1.4 1.8 2.5 3.1 3.3 1.3.8 2.7 1.2 4.2 1.2s2.9-.4 4.2-1.2c1.3-.8 2.3-1.9 3-3.3.7-1.4 1.1-3 1.1-4.7 0-1.7-.4-3.2-1.1-4.6-.7-1.4-1.7-2.5-3-3.3-1.3-.8-2.7-1.2-4.2-1.2s-2.9.4-4.3 1.2z"/>
      <path id="XMLID_57_" d="M608 195.2h8.1v31.1H608v-31.1z"/>
      <path id="XMLID_59_" d="M644.9 226.2l-2.1-5.5h-13.4l-2.2 5.5h-8.3l13.3-31.1h8.3l13 31.1h-8.6zm-13.1-11.7h8.6l-4.2-11.1-4.4 11.1z"/>
      <path id="XMLID_62_" d="M650.3 195.2h26.6v6.7h-9.3v24.4h-8.1v-24.4h-9.2v-6.7z"/>
      <path id="XMLID_64_" d="M698.8 226.2l-4.5-8.6h-6v8.6h-8.1v-31.1h13.9c4.1 0 7.3 1 9.5 2.9 2.3 1.9 3.4 4.6 3.4 8 0 2.3-.5 4.3-1.4 6-.9 1.7-2.3 3-4.1 4l6.5 10.1h-9.2zm-10.5-15h5.9c1.7 0 2.9-.4 3.8-1.2.9-.8 1.3-2 1.3-3.6 0-1.5-.4-2.7-1.3-3.5-.9-.8-2.2-1.2-3.8-1.2h-5.9v9.5z"/>
      <path id="XMLID_67_" d="M712.3 195.2h8.1v31.1h-8.1v-31.1z"/>
      <path id="XMLID_69_" d="M745.2 202.7c-1.4-.8-2.8-1.1-4.1-1.1-1.6 0-3 .4-4.3 1.2-1.3.8-2.3 1.9-3 3.2-.7 1.4-1.1 2.9-1.1 4.6 0 1.7.4 3.2 1.1 4.6.7 1.4 1.7 2.5 3 3.2 1.3.8 2.7 1.2 4.3 1.2 1.3 0 2.6-.3 4-1s2.6-1.5 3.7-2.7l4.7 5.1c-1.7 1.8-3.7 3.2-6 4.2s-4.6 1.6-6.9 1.6c-3.1 0-5.8-.7-8.3-2.1-2.5-1.4-4.4-3.4-5.8-5.8-1.4-2.4-2.1-5.2-2.1-8.2 0-3 .7-5.7 2.2-8.2 1.4-2.4 3.4-4.3 6-5.7 2.5-1.4 5.3-2.1 8.5-2.1 2.3 0 4.6.5 6.8 1.4 2.2 1 4.1 2.3 5.7 3.9l-4.7 5.7c-1.1-1.3-2.3-2.3-3.7-3z"/>
      <path id="XMLID_71_" d="M779.8 196.8c2.6 1.4 4.6 3.3 6 5.7 1.5 2.4 2.2 5.1 2.2 8.2 0 3-.7 5.8-2.2 8.2-1.5 2.5-3.5 4.4-6 5.8-2.6 1.4-5.4 2.1-8.6 2.1-3.2 0-6-.7-8.6-2.1-2.6-1.4-4.6-3.3-6-5.8-1.5-2.5-2.2-5.2-2.2-8.3 0-3 .7-5.7 2.2-8.2 1.5-2.4 3.5-4.3 6-5.7 2.6-1.4 5.4-2.1 8.6-2.1 3.2.1 6.1.8 8.6 2.2zm-12.7 5.9c-1.3.8-2.4 1.9-3.1 3.3-.8 1.4-1.1 2.9-1.1 4.6 0 1.7.4 3.3 1.2 4.7.8 1.4 1.8 2.5 3.1 3.3 1.3.8 2.7 1.2 4.2 1.2s2.9-.4 4.2-1.2c1.3-.8 2.3-1.9 3-3.3.7-1.4 1.1-3 1.1-4.7 0-1.7-.4-3.2-1.1-4.6-.7-1.4-1.7-2.5-3-3.3-1.3-.8-2.7-1.2-4.2-1.2s-3 .4-4.3 1.2z"/>
    </g>
    <g id="XMLID_1071_">
      <path id="XMLID_3_" d="M426.4 150.3c-1.4-.8-2.8-1.1-4.1-1.1-1.6 0-3 .4-4.3 1.2-1.3.8-2.3 1.9-3 3.2-.7 1.4-1.1 2.9-1.1 4.6s.4 3.2 1.1 4.6c.7 1.4 1.7 2.5 3 3.2 1.3.8 2.7 1.2 4.3 1.2 1.3 0 2.6-.3 4-1s2.6-1.5 3.7-2.7l4.7 5.1c-1.7 1.8-3.7 3.2-6 4.2s-4.6 1.6-6.9 1.6c-3.1 0-5.8-.7-8.3-2.1-2.5-1.4-4.4-3.4-5.8-5.8-1.4-2.5-2.1-5.2-2.1-8.2 0-3 .7-5.7 2.2-8.2 1.4-2.4 3.4-4.3 6-5.7 2.5-1.4 5.3-2.1 8.5-2.1 2.3 0 4.6.5 6.8 1.4 2.2 1 4.1 2.3 5.7 3.9l-4.7 5.7c-1.1-1.2-2.3-2.2-3.7-3z"/>
      <path id="XMLID_5_" d="M438.1 142.8h24.5v6.5h-16.4v5.8H461v6.4h-14.8v5.8H463v6.5h-24.9v-31z"/>
      <path id="XMLID_7_" d="M489.1 142.8h7.5v31.1h-7.1l-14.1-18.6v18.6h-7.6v-31.1h7.1l14.1 18.7.1-18.7z"/>
      <path id="XMLID_9_" d="M500 142.8h26.6v6.7h-9.3v24.4h-8.1v-24.4H500v-6.7z"/>
      <path id="XMLID_11_" d="M548.5 173.9l-4.5-8.6h-6v8.6h-8.1v-31.1h13.9c4.1 0 7.3 1 9.5 2.9 2.3 1.9 3.4 4.6 3.4 8 0 2.3-.5 4.3-1.4 6-.9 1.7-2.3 3-4.1 4l6.5 10.1h-9.2zm-10.6-15.1h5.9c1.7 0 2.9-.4 3.8-1.2.9-.8 1.3-2 1.3-3.6 0-1.5-.4-2.7-1.3-3.5-.9-.8-2.2-1.2-3.8-1.2h-5.9v9.5z"/>
      <path id="XMLID_14_" d="M585.2 144.4c2.6 1.4 4.6 3.3 6 5.7 1.5 2.4 2.2 5.1 2.2 8.2 0 3-.7 5.8-2.2 8.2-1.5 2.5-3.5 4.4-6 5.8-2.6 1.4-5.4 2.1-8.6 2.1-3.2 0-6-.7-8.6-2.1-2.6-1.4-4.6-3.3-6-5.8-1.5-2.5-2.2-5.2-2.2-8.3 0-3 .7-5.7 2.2-8.2 1.5-2.4 3.5-4.3 6-5.7 2.6-1.4 5.4-2.1 8.6-2.1 3.2.1 6 .8 8.6 2.2zm-12.8 6c-1.3.8-2.4 1.9-3.1 3.3-.8 1.4-1.1 2.9-1.1 4.6 0 1.7.4 3.3 1.2 4.7.8 1.4 1.8 2.5 3.1 3.3 1.3.8 2.7 1.2 4.2 1.2s2.9-.4 4.2-1.2c1.3-.8 2.3-1.9 3-3.3.7-1.4 1.1-3 1.1-4.7 0-1.7-.4-3.2-1.1-4.6-.7-1.4-1.7-2.5-3-3.3-1.3-.8-2.7-1.2-4.2-1.2s-3 .4-4.3 1.2z"/>
      <path id="XMLID_17_" d="M607.1 142.8h8.8l9 18.2 8.9-18.2h8.8v31.1h-7.2v-19.7l-7.9 16.6h-5.2l-8-16.6v19.7h-7.2v-31.1z"/>
      <path id="XMLID_19_" d="M648.7 142.8h24.5v6.5h-16.4v5.8h14.8v6.4h-14.8v5.8h16.8v6.5h-24.9v-31z"/>
      <path id="XMLID_21_" d="M700.5 144.7c2.5 1.3 4.4 3.1 5.8 5.5 1.4 2.3 2.1 5 2.1 8.1 0 3-.7 5.7-2.1 8.1-1.4 2.4-3.4 4.2-5.9 5.5-2.6 1.3-5.5 1.9-8.8 1.9h-13.1v-31.1h13.4c3.2.1 6.1.7 8.6 2zm-4.3 21.5c1.2-.7 2.2-1.8 2.8-3.1.7-1.4 1-2.9 1-4.7 0-1.8-.4-3.3-1.1-4.7-.7-1.4-1.7-2.4-3-3.2-1.3-.8-2.7-1.1-4.3-1.1h-5.1v17.9h5.5c1.6 0 3-.4 4.2-1.1z"/>
      <path id="XMLID_24_" d="M712.4 142.8h8.1v31.1h-8.1v-31.1z"/>
      <path id="XMLID_26_" d="M745.3 150.3c-1.4-.8-2.8-1.1-4.1-1.1-1.6 0-3 .4-4.3 1.2-1.3.8-2.3 1.9-3 3.2-.7 1.4-1.1 2.9-1.1 4.6s.4 3.2 1.1 4.6c.7 1.4 1.7 2.5 3 3.2 1.3.8 2.7 1.2 4.3 1.2 1.3 0 2.6-.3 4-1s2.6-1.5 3.7-2.7l4.7 5.1c-1.7 1.8-3.7 3.2-6 4.2s-4.6 1.6-6.9 1.6c-3.1 0-5.8-.7-8.3-2.1-2.5-1.4-4.4-3.4-5.8-5.8-1.4-2.5-2.1-5.2-2.1-8.2 0-3 .7-5.7 2.2-8.2 1.4-2.4 3.4-4.3 6-5.7 2.5-1.4 5.3-2.1 8.5-2.1 2.3 0 4.6.5 6.8 1.4 2.2 1 4.1 2.3 5.7 3.9l-4.7 5.7c-1.1-1.2-2.3-2.2-3.7-3z"/>
      <path id="XMLID_28_" d="M779.8 144.4c2.6 1.4 4.6 3.3 6 5.7 1.5 2.4 2.2 5.1 2.2 8.2 0 3-.7 5.8-2.2 8.2-1.5 2.5-3.5 4.4-6 5.8-2.6 1.4-5.4 2.1-8.6 2.1-3.2 0-6-.7-8.6-2.1-2.6-1.4-4.6-3.3-6-5.8-1.5-2.5-2.2-5.2-2.2-8.3 0-3 .7-5.7 2.2-8.2 1.5-2.4 3.5-4.3 6-5.7 2.6-1.4 5.4-2.1 8.6-2.1 3.2.1 6.1.8 8.6 2.2zm-12.7 6c-1.3.8-2.4 1.9-3.1 3.3-.8 1.4-1.1 2.9-1.1 4.6 0 1.7.4 3.3 1.2 4.7.8 1.4 1.8 2.5 3.1 3.3 1.3.8 2.7 1.2 4.2 1.2s2.9-.4 4.2-1.2c1.3-.8 2.3-1.9 3-3.3.7-1.4 1.1-3 1.1-4.7 0-1.7-.4-3.2-1.1-4.6-.7-1.4-1.7-2.5-3-3.3-1.3-.8-2.7-1.2-4.2-1.2s-3 .4-4.3 1.2z"/>
    </g>
  </g>
</svg>
