<svg xmlns="http://www.w3.org/2000/svg" viewBox="0 0 377 430.9">
  <style>
    .st0{fill:#4c4c4c}.st1{fill:#8a8a8a}.st2{fill:#767676}.st3{fill:#868686}.st4{fill:#a5a5a5}.st5{fill:#e3e3e3}
  </style>
  <g id="brand-mark">
    <g id="XMLID_426_">
      <g id="XMLID_437_">
        <ellipse id="XMLID_122_" transform="matrix(.9998 -.02138 .02138 .9998 -.6491 4.01)" class="st0" cx="187.2" cy="32.4" rx="29.4" ry="29.5"/>
        <path id="XMLID_121_" class="st0" d="M126.2 77.2c4.2-6.5 9.2-12.4 14.8-17.7 4-3.6 8.4-6.7 13.2-9.1 8.8 12 16.3 17.5 32.8 19.2 8.5.8 25.7-2.9 34.2-22.8 0 0 8.2 4.5 8.8 4.9 3.9 2.3 7.6 4.8 11.1 7.5 4.1 3.3 7.9 7 11.3 11 3.9 4.7 7.1 9.8 9.6 15.4 1.6 3.7 3 7.5 4 11.5 1.1 3.9 2 7.8 2.7 11.7.5 3.8.6 7.6.5 11.4-.2 6-1 11.9-2.3 17.7-1.1 4.7-1.9 11-6.7 13.5-1.7 1-3.9.9-5.6-.1-2.9-1.8-4.3-6-4.8-9.3-.2-1.7-.2-3.2-.2-4.8s-.2-3.5-.3-5.3c-.2-3.5-.6-7.1-1.3-10.6-1.1-6.3-3.3-12.8-9.7-15.4-1.8-.7-3.7-1.1-5.6-1.2-2.7-.3-5.5-.3-8.2-.3-17.9 0-56.3 1.2-56.3 1.2s-14.9-19.2-37.7-21.9c-1.8 0-3.5-.2-5.2-.7-2-.8-.7-3.5 0-4.6l.9-1.2z"/>
      </g>
      <g id="XMLID_436_">
        <path id="XMLID_119_" class="st1" d="M358.7 152c-14.2 7.6-31.9 2.1-39.4-12.2-7.5-14.3-2.1-32 12.1-39.6 14.1-7.5 31.7-2.2 39.3 11.9 7.6 14.4 2.3 32.2-12 39.9z"/>
      </g>
      <g id="XMLID_435_">
        <path id="XMLID_118_" class="st1" d="M277.5 92.7c7.6.8 15.1 2.5 22.3 5 5 1.9 9.8 4.4 14.1 7.6-6.7 13.3-8.1 22.4-2.2 37.8 3.1 7.9 14.2 21.3 35.7 19.9 0 0-.3 9.3-.4 10.1-.3 4.4-.8 8.9-1.7 13.2-1 5.2-2.6 10.2-4.6 15.1-2.4 5.6-5.5 10.8-9.3 15.5-2.5 3.1-5.3 6.1-8.4 8.8-2.9 2.8-6 5.4-9.3 7.8-3.1 2.1-6.4 4-9.8 5.6-5.4 2.5-11 4.5-16.7 6-4.6 1.2-10.6 3.4-15 .3-1.7-1.1-2.6-3-2.4-5 .3-3.5 3.3-6.6 6-8.5 1.3-.9 2.8-1.7 4.2-2.4s3-1.8 4.5-2.7c3-1.8 6-3.8 8.8-5.9 5-3.9 9.8-8.8 9.2-15.6-.2-1.9-.7-3.7-1.5-5.5-1-2.5-2.2-5-3.5-7.4-8.2-15.9-26.6-49.3-26.6-49.3s10.3-22 2.4-43.4c-.8-1.6-1.4-3.2-1.8-4.9-.2-2.1 2.8-2.2 4.1-2l1.9-.1z"/>
      </g>
      <g id="XMLID_434_">
        <path id="XMLID_117_" class="st2" d="M47.8 97.3c13.9 8.6 18.2 26.8 9.7 40.8-8.5 13.9-26.7 18.3-40.6 9.7-13.8-8.5-18.2-26.6-9.8-40.5 8.5-14.2 26.7-18.6 40.7-10z"/>
      </g>
      <g id="XMLID_433_">
        <path id="XMLID_116_" class="st2" d="M37.7 198.9c-3.2-7.1-5.6-14.5-7.1-22.1-.9-5.4-1.1-10.8-.6-16.2 14.9-.9 23.6-4.3 34-17.4 5.2-6.7 11.3-23.4-1-41.5 0 0 8.3-4.5 8.9-4.8 4-2 8.1-3.8 12.4-5.3 5-1.7 10.2-3 15.4-3.6 6-.7 12.2-.7 18.2.2 4 .6 8 1.6 11.9 2.9 3.9 1.1 7.7 2.5 11.5 4.1 3.4 1.6 6.7 3.6 9.8 5.8 4.9 3.4 9.6 7.2 13.8 11.5 3.3 3.4 8.4 7.6 7.9 13-.1 2-1.3 3.8-3.1 4.7-3.2 1.6-7.4.5-10.5-.9-1.5-.7-2.8-1.7-4.2-2.4-1.4-.8-3.1-1.7-4.6-2.6-3.1-1.7-6.4-3.3-9.7-4.7-5.9-2.5-12.6-4.1-18.4-.1-1.5 1.2-2.8 2.6-3.9 4.2-1.7 2.2-3.2 4.5-4.7 6.8-9.6 15.3-29.2 48.5-29.2 48.5s-24.2 2-38.8 20c-.9 1.5-2.1 2.9-3.3 4.1-1.8 1.3-3.3-1.3-3.9-2.6l-.8-1.6z"/>
      </g>
      <g id="XMLID_432_">
        <path id="XMLID_115_" class="st3" d="M17.9 281.8c14.1-8.1 32.1-3.1 40.2 11.1 8.1 14.2 3.2 32.3-10.9 40.4-14.2 8-32.1 3-40.2-11.2-8.1-14.2-3.2-32.2 10.9-40.3z"/>
      </g>
      <g id="XMLID_431_">
        <path id="XMLID_114_" class="st3" d="M101 340.1c-7.7-.6-15.2-2.1-22.5-4.6-5.1-1.8-9.9-4.3-14.3-7.4 6.3-13.4 7.5-22.8 1.1-38.2C62 282 50.4 268.6 29 270.5c0 0 0-9.4.1-10.1.1-4.5.6-9 1.3-13.4.9-5.2 2.3-10.3 4.2-15.3 2.2-5.6 5.2-10.9 8.9-15.8 2.5-3.2 5.2-6.2 8.1-9 2.9-2.8 5.9-5.5 9.1-8 3.1-2.2 6.3-4.2 9.7-5.8 5.3-2.6 10.9-4.8 16.6-6.4 4.6-1.3 10.5-3.6 15-.6 1.7 1.1 2.7 3 2.6 5-.2 3.5-3.1 6.7-5.8 8.7-1.3 1-2.8 1.7-4.1 2.5s-3 1.8-4.5 2.8c-3 1.8-5.9 3.8-8.7 6-5 4-9.6 9-8.8 15.9.3 1.9.8 3.8 1.7 5.5 1.1 2.5 2.4 5 3.7 7.4 8.7 15.8 28 49.2 28 49.2s-9.7 22.3-1.2 43.8c.8 1.6 1.5 3.2 1.9 4.9.3 2.2-2.7 2.3-4.1 2.1l-1.7.2z"/>
      </g>
      <g id="XMLID_430_">
        <circle id="XMLID_113_" transform="matrix(1 -.00747 .00747 1 -2.9729 1.4306)" class="st4" cx="189.9" cy="398.5" r="29.5"/>
      </g>
      <g id="XMLID_429_">
        <path id="XMLID_112_" class="st4" d="M251.8 354.5c-4.3 6.4-9.4 12.3-15 17.5-4 3.6-8.5 6.6-13.4 8.9-8.6-12.2-16.1-17.7-32.6-19.7-8.5-.9-25.8 2.6-34.6 22.3 0 0-8.1-4.7-8.8-5-3.9-2.3-7.6-4.9-11.1-7.7-4.1-3.3-7.8-7.1-11.1-11.2-3.8-4.7-7-9.9-9.4-15.5-1.6-3.7-2.9-7.6-3.8-11.5-1.1-3.9-1.9-7.9-2.5-11.8-.4-3.8-.5-7.6-.3-11.3.3-6 1.2-11.9 2.6-17.7 1.1-4.7 2-11 6.8-13.4 1.8-1 3.9-.9 5.6.2 3 1.9 4.3 6 4.7 9.3.2 1.7.1 3.2.2 4.8.1 1.6.2 3.5.3 5.3.2 3.6.5 7.1 1.1 10.6 1.1 6.3 3.2 12.8 9.5 15.5 1.8.7 3.7 1.1 5.6 1.2 2.7.3 5.5.4 8.2.4 18 .2 56.5-.4 56.5-.4s14.6 19.5 37.5 22.5c1.8 0 3.5.3 5.2.8 2 .8.6 3.5-.1 4.6l-1.1 1.3z"/>
      </g>
      <g id="XMLID_428_">
        <path id="XMLID_40_" class="st5" d="M319.4 293.7c8.4-14 26.5-18.5 40.4-10.1 13.9 8.4 18.4 26.6 10 40.6s-26.5 18.5-40.4 10.1-18.5-26.6-10-40.6z"/>
      </g>
      <g id="XMLID_427_">
        <path id="XMLID_1_" class="st5" d="M339.6 233c3.2 7 5.5 14.4 7 22 .9 5.3 1.1 10.8.6 16.2-14.8 1-23.4 4.5-33.7 17.6-5.2 6.7-11.3 23.5.8 41.3 0 0-8.2 4.5-8.9 4.9-4 2.1-8.1 3.9-12.3 5.4-5 1.8-10.1 3-15.3 3.7-6 .8-12.1.8-18.1 0-4-.6-7.9-1.5-11.8-2.8-3.9-1.1-7.7-2.5-11.4-4-3.4-1.6-6.7-3.5-9.8-5.7-4.9-3.4-9.5-7.2-13.7-11.4-3.3-3.4-8.4-7.5-7.8-12.9.1-2 1.3-3.8 3.1-4.7 3.2-1.6 7.4-.6 10.4.8 1.5.7 2.8 1.7 4.2 2.4 1.4.7 3.1 1.7 4.6 2.6 3.1 1.7 6.3 3.2 9.6 4.6 5.9 2.4 12.5 4 18.2 0 1.5-1.2 2.9-2.6 4-4.1 1.7-2.2 3.2-4.5 4.6-6.8 9.5-15.4 29.1-48.6 29.1-48.6s24.2-2.3 38.7-20.3c.9-1.5 2.1-2.9 3.3-4.1 1.7-1.3 3.3 1.3 3.8 2.5l.8 1.4z"/>
      </g>
    </g>
  </g>
  <g id="brand-name">
    <g id="XMLID_438_">
      <path id="XMLID_31_" d="M128.4 196.1h8.4v37.2h-8.4v-37.2z"/>
      <path id="XMLID_33_" d="M169.9 214.6h7.3V229c-2 1.5-4.3 2.6-7.1 3.5-2.7.9-5.4 1.4-7.9 1.4-3.7 0-7.1-.8-10.1-2.5s-5.4-4-7.1-6.9c-1.7-2.9-2.6-6.2-2.6-9.8 0-3.6.9-6.8 2.6-9.8 1.8-2.9 4.2-5.2 7.3-6.9 3.1-1.7 6.5-2.5 10.3-2.5 2.8 0 5.4.5 8.1 1.5 2.6 1 4.9 2.3 6.8 4l-4.7 6c-1.4-1.3-3-2.3-4.8-3.1-1.8-.7-3.6-1.1-5.4-1.1-2.2 0-4.1.5-5.9 1.6s-3.2 2.5-4.2 4.3c-1 1.8-1.5 3.8-1.5 6s.5 4.2 1.6 6c1 1.8 2.5 3.3 4.2 4.3 1.8 1 3.8 1.6 5.9 1.6 1.1 0 2.3-.2 3.5-.6 1.3-.4 2.5-.9 3.7-1.5v-9.9z"/>
      <path id="XMLID_35_" d="M184.5 196.1h28.2v7h-19.9v8.1h17.8v7h-17.8v8.2h20.4v7h-28.8v-37.3z"/>
      <path id="XMLID_37_" d="M247.2 233.3l-2.9-7.2h-17.2l-2.9 7.2h-8.6l16.1-37.2h8.6l15.8 37.2h-8.9zm-17.3-13.9h11.7l-5.8-14.5-5.9 14.5z"/>
    </g>
  </g>
</svg>
